<?xml version="1.0" standalone="no"?>
<!DOCTYPE svg PUBLIC "-//W3C//DTD SVG 20010904//EN"
 "http://www.w3.org/TR/2001/REC-SVG-20010904/DTD/svg10.dtd">
<svg version="1.0" xmlns="http://www.w3.org/2000/svg"
 width="250.000000pt" height="250.000000pt" viewBox="0 0 250.000000 250.000000"
 preserveAspectRatio="xMidYMid meet">
<metadata>
Created by potrace 1.14, written by Peter Selinger 2001-2017
</metadata>
<g transform="translate(0.000000,250.000000) scale(0.100000,-0.100000)"
fill="#000000" stroke="none">
<path d="M0 1250 l0 -1250 1250 0 1250 0 0 1250 0 1250 -1250 0 -1250 0 0
-1250z m1010 108 c19 -11 41 -29 48 -39 13 -19 14 -19 34 6 59 75 184 81 254
11 l33 -33 23 24 c35 37 74 54 128 55 52 0 107 -22 136 -53 16 -18 17 -21 1
-36 -15 -16 -18 -15 -36 1 -52 47 -139 50 -187 5 -99 -93 2 -262 131 -219 50
17 107 89 111 143 5 52 46 113 94 139 49 27 143 21 188 -11 32 -22 32 -22 32
-2 0 16 6 21 25 21 l25 0 0 -165 0 -165 -25 0 c-18 0 -25 5 -25 20 0 19 -1 18
-35 -4 -74 -51 -162 -41 -229 26 l-40 40 -18 -26 c-51 -68 -159 -91 -233 -47
-45 26 -45 26 -45 -5 0 -21 -4 -25 -22 -22 -22 3 -23 8 -28 124 -6 137 -17
165 -75 184 -69 23 -144 -11 -171 -76 -9 -21 -14 -71 -14 -134 0 -99 0 -100
-24 -100 -24 0 -24 0 -28 126 l-3 126 -33 29 c-27 25 -41 29 -87 29 -49 0 -60
-4 -93 -34 l-37 -34 -3 -121 c-4 -120 -4 -121 -28 -121 l-24 0 0 175 0 175 25
0 c18 0 25 -5 25 -20 0 -20 0 -20 29 1 57 42 135 45 201 7z m-520 -75 l0 -87
81 87 c72 77 84 87 116 87 l35 0 -83 -90 -83 -91 79 -79 c78 -78 79 -80 49
-80 -23 0 -43 14 -94 65 -59 60 -65 63 -81 49 -12 -11 -19 -34 -21 -68 -3 -44
-6 -51 -25 -54 l-23 -3 0 175 0 176 25 0 c25 0 25 -1 25 -87z"/>
<path d="M1794 1311 c-18 -11 -38 -36 -48 -61 -55 -137 123 -242 219 -128 71
84 12 208 -100 208 -22 0 -54 -9 -71 -19z"/>
</g>
</svg>
